<svg width="70" height="25" viewBox="0 0 70 25" fill="none" xmlns="http://www.w3.org/2000/svg">
<g clip-path="url(#clip0_36_2)">
<ellipse cx="57.6154" cy="12.3846" rx="12.3846" ry="12.3846" fill="white"/>
<path fill-rule="evenodd" clip-rule="evenodd" d="M51.1432 19.4021H54.3374V6.15949C54.3374 5.60927 54.4271 5.22835 53.6577 5.31797C52.8685 5.41258 52.0793 5.50719 51.29 5.59931C50.5655 5.68645 49.7913 5.83832 49.7913 6.68232V8.13879C49.7913 8.85582 50.1423 9.06744 51.1407 8.6666V19.4021H51.1432ZM60.0363 19.5366C63.0588 19.5366 65.1551 17.7863 65.1551 15.207C65.1551 13.6086 64.346 12.436 62.9791 11.9156C63.98 11.3181 64.5949 10.2401 64.5949 8.91308C64.5949 6.62257 62.7675 5.06403 59.8994 5.06403C57.6711 5.06403 56.0005 6.23667 55.2686 8.32551C55.1789 8.58444 55.0818 9.1969 55.5648 9.32637C56.1897 9.49318 56.8221 9.62264 57.452 9.76953C57.8852 9.87161 57.9201 9.69733 58.0421 9.36122C58.3757 8.43008 59.0106 7.90974 59.8994 7.90974C60.8803 7.90974 61.5152 8.52469 61.5152 9.35375C61.5152 10.1828 60.8604 10.7978 59.8023 10.7978C58.7442 10.7978 58.4703 13.4916 60.0338 13.4916C61.189 13.4916 61.921 14.0493 61.921 15.0302C61.921 16.0112 61.1691 16.666 60.0164 16.666C59.0504 16.666 58.2587 16.2079 57.8678 15.212C57.6412 14.6369 57.574 14.602 56.9864 14.7813C56.486 14.9331 55.9856 15.0875 55.4852 15.2394C54.8229 15.441 54.6934 15.5556 54.9399 16.2577C55.7466 18.5581 57.7583 19.5316 60.0363 19.5316V19.5366Z" fill="#256E70"/>
<path d="M4.55614 2.31044C4.52876 2.31044 4.49888 2.31044 4.4715 2.31044C4.44411 2.31044 4.41921 2.30795 4.39432 2.30546V2.98017H4.07812V1.25232H4.57606C4.65822 1.25232 4.73291 1.25481 4.79515 1.26228C4.8574 1.26975 4.91217 1.27971 4.96196 1.29465C5.07898 1.33199 5.1711 1.38926 5.23583 1.46893C5.30056 1.5486 5.33044 1.64818 5.33044 1.77018C5.33044 1.85234 5.31301 1.92952 5.27815 1.99425C5.2433 2.06147 5.1935 2.11873 5.12628 2.16355C5.05906 2.21085 4.97939 2.24571 4.88229 2.27061C4.78769 2.2955 4.67814 2.30795 4.55366 2.30795L4.55614 2.31044ZM4.39432 2.03906C4.41174 2.04155 4.43415 2.04404 4.46403 2.04404C4.49141 2.04404 4.52129 2.04404 4.55117 2.04404C4.63581 2.04404 4.70802 2.03657 4.76528 2.02413C4.82254 2.00919 4.86985 1.99176 4.9047 1.96686C4.93956 1.94197 4.96445 1.91209 4.97939 1.87723C4.99433 1.84238 5.0018 1.80503 5.0018 1.76271C5.0018 1.71292 4.98935 1.6681 4.96694 1.63076C4.94454 1.59341 4.9047 1.56602 4.84495 1.54362C4.81507 1.53366 4.77773 1.52619 4.73291 1.52121C4.6881 1.51623 4.63581 1.51374 4.57108 1.51374H4.39183V2.03409L4.39432 2.03906ZM8.54462 1.77267C8.54462 1.89217 8.51225 1.99425 8.44503 2.0789C8.37781 2.16355 8.27574 2.22579 8.13631 2.26563V2.27061L8.65417 2.98017H8.27325L7.80269 2.31044H7.58609V2.98017H7.2699V1.25232H7.79523C7.88236 1.25232 7.96203 1.2573 8.03922 1.26726C8.11391 1.27722 8.17864 1.29216 8.23092 1.31208C8.333 1.34942 8.41018 1.40917 8.46495 1.48386C8.51972 1.56104 8.54711 1.65565 8.54711 1.77018L8.54462 1.77267ZM7.74045 2.04653C7.81265 2.04653 7.8749 2.04404 7.92469 2.03657C7.97448 2.02911 8.01681 2.01915 8.05166 2.0067C8.11391 1.9818 8.15872 1.94944 8.18362 1.90711C8.20851 1.86479 8.22096 1.81748 8.22096 1.76271C8.22096 1.71541 8.211 1.67557 8.19109 1.63823C8.17117 1.60337 8.1388 1.57598 8.09399 1.55358C8.06411 1.53864 8.02677 1.52868 7.98195 1.5237C7.93714 1.51623 7.87987 1.51374 7.81265 1.51374H7.58858V2.04155H7.74543L7.74045 2.04653ZM10.8451 2.71626H11.6941V2.98017H10.5264V1.25232H11.6468V1.51623H10.8426V1.96437H11.5322V2.22828H10.8426V2.71377L10.8451 2.71626ZM13.9497 2.98017H13.6335V1.25232H14.734V1.51623H13.9497V1.96437H14.6195V2.22828H13.9497V2.98017ZM16.9274 2.71626H17.7764V2.98017H16.6087V1.25232H17.7291V1.51623H16.9249V1.96437H17.6145V2.22828H16.9249V2.71377L16.9274 2.71626ZM19.7134 2.98017V1.25232H20.0295V2.98017H19.7134ZM22.7533 2.98017H22.4371V1.51872H21.8794V1.25481H23.3109V1.51872H22.7533V2.98017ZM26.3708 2.11376C26.3708 2.00919 26.3583 1.91707 26.3309 1.8374C26.306 1.75773 26.2687 1.693 26.2239 1.64071C26.1791 1.58843 26.1243 1.5486 26.062 1.5237C25.9998 1.4988 25.9301 1.48386 25.8554 1.48386C25.7807 1.48386 25.711 1.49631 25.6488 1.5237C25.5865 1.5486 25.5317 1.58843 25.4869 1.64071C25.4421 1.693 25.4048 1.75773 25.3799 1.8374C25.355 1.91707 25.34 2.0067 25.34 2.11376C25.34 2.22081 25.3525 2.31044 25.3799 2.39011C25.4048 2.46978 25.4421 2.53451 25.4869 2.5868C25.5317 2.63908 25.5865 2.67891 25.6488 2.70381C25.711 2.72871 25.7807 2.74365 25.8554 2.74365C25.9301 2.74365 25.9998 2.7312 26.062 2.70381C26.1243 2.67642 26.1791 2.63908 26.2239 2.5868C26.2687 2.53451 26.306 2.46978 26.3309 2.39011C26.3558 2.31044 26.3708 2.21832 26.3708 2.11376ZM26.6969 2.11376C26.6969 2.24571 26.6795 2.36521 26.6421 2.47725C26.6048 2.5868 26.55 2.6814 26.4778 2.76107C26.4056 2.84074 26.3185 2.90299 26.2139 2.94531C26.1094 2.99012 25.9898 3.01004 25.8579 3.01004C25.7259 3.01004 25.6064 2.98763 25.5019 2.94531C25.3973 2.9005 25.3077 2.84074 25.238 2.76107C25.1658 2.6814 25.111 2.5868 25.0736 2.47725C25.0363 2.3677 25.0164 2.24571 25.0164 2.11376C25.0164 1.9818 25.0363 1.8623 25.0736 1.75026C25.111 1.64071 25.1658 1.54611 25.238 1.46644C25.3102 1.38677 25.3973 1.32452 25.5019 1.2822C25.6064 1.23739 25.7259 1.21747 25.8579 1.21747C25.9898 1.21747 26.1094 1.23988 26.2139 1.2822C26.3185 1.32701 26.4081 1.38677 26.4778 1.46644C26.55 1.54611 26.6048 1.64071 26.6421 1.75026C26.6795 1.85981 26.6969 1.9818 26.6969 2.11376Z" fill="white"/>
<path fill-rule="evenodd" clip-rule="evenodd" d="M31.0414 0.57262C30.9717 0.378425 30.5957 0.356018 30.5185 0.585069C30.3866 0.933625 30.2546 1.28218 30.1252 1.62825C30.0604 1.81248 29.9484 1.91954 29.7741 1.92701C29.3633 1.92203 28.9525 1.91705 28.5417 1.91456C28.2953 1.93697 28.1957 2.27059 28.3575 2.43242C28.6612 2.65898 28.9625 2.88803 29.2662 3.11459C29.4206 3.24654 29.4878 3.41086 29.3982 3.63991C29.2986 3.9337 29.2015 4.22997 29.1019 4.52375C28.9799 4.86982 29.2164 5.20592 29.5949 4.98185C29.8862 4.77272 30.1775 4.5611 30.4663 4.35196C30.6181 4.22997 30.7899 4.23993 30.9791 4.38184C31.2704 4.59844 31.5617 4.81255 31.853 5.02916C32.0945 5.22335 32.448 4.99928 32.3186 4.61338C32.224 4.31213 32.1269 4.00839 32.0323 3.70713C31.9576 3.45817 32.0472 3.29883 32.209 3.17932C32.5227 2.95774 32.8364 2.73865 33.1501 2.51706C33.3269 2.35026 33.1875 2.03158 32.9236 2.00668C32.5875 1.99423 32.2514 1.98427 31.9128 1.97182C31.6414 1.98427 31.4621 1.87722 31.3825 1.6407C31.2679 1.28467 31.1534 0.926156 31.0414 0.57013V0.57262Z" fill="white"/>
<path d="M3.01751 20.0494H2.0789V21.6478H0.537781V16.2975H3.01502C3.28141 16.2975 3.53536 16.3448 3.78184 16.4394C4.02832 16.534 4.24492 16.666 4.43414 16.8377C4.62335 17.007 4.77523 17.2087 4.88975 17.4378C5.00428 17.6668 5.05905 17.9158 5.05905 18.1797C5.05905 18.4436 5.00179 18.7 4.88975 18.9266C4.77772 19.1532 4.62833 19.3498 4.44161 19.5142C4.25737 19.6785 4.03828 19.8079 3.7918 19.905C3.54283 19.9996 3.28639 20.047 3.02249 20.047L3.01751 20.0494ZM2.96771 17.5971H2.10379V18.6278H2.96771C3.10963 18.6278 3.22664 18.578 3.32374 18.4785C3.42084 18.3789 3.46814 18.2643 3.46814 18.1324C3.46814 18.0004 3.41835 17.8735 3.31876 17.7639C3.21917 17.6519 3.10216 17.5971 2.96771 17.5971ZM5.7238 21.6478V16.2975H9.96871V17.6369H7.13545V18.2942H9.81435V19.6411H7.13545V20.2984H9.96871V21.6453H5.7238V21.6478ZM14.2311 21.6478L13.387 20.0171H12.436V21.6478H10.87V16.2975H13.6634C13.7879 16.2975 13.9174 16.3149 14.0493 16.3498C14.1813 16.3846 14.3107 16.4344 14.4352 16.4967C14.5597 16.5589 14.6742 16.6336 14.7813 16.7207C14.8858 16.8079 14.978 16.905 15.0526 17.012C15.1448 17.1465 15.2145 17.2934 15.2643 17.4502C15.3141 17.6071 15.3365 17.7664 15.3365 17.9282C15.3365 18.1872 15.2767 18.4336 15.1572 18.6627C15.0377 18.8917 14.8759 19.0859 14.6692 19.2428L15.9191 21.6453H14.2311V21.6478ZM13.2227 17.5498H12.436V18.5731H13.2227C13.3646 18.5731 13.4841 18.5233 13.5887 18.4212C13.6908 18.3216 13.7431 18.1996 13.7431 18.0577C13.7431 17.9158 13.6908 17.7963 13.5887 17.6967C13.4866 17.5971 13.3646 17.5498 13.2227 17.5498ZM18.4884 20.0494H17.5498V21.6478H16.0062V16.2975H18.4834C18.7498 16.2975 19.0038 16.3448 19.2503 16.4394C19.4967 16.534 19.7133 16.666 19.9026 16.8377C20.0918 17.007 20.2436 17.2087 20.3582 17.4378C20.4727 17.6668 20.5275 17.9158 20.5275 18.1797C20.5275 18.4436 20.4702 18.7 20.3582 18.9266C20.2461 19.1532 20.0968 19.3498 19.91 19.5142C19.7258 19.6785 19.5067 19.8079 19.2602 19.905C19.0112 19.9996 18.7548 20.047 18.4909 20.047L18.4884 20.0494ZM18.4361 17.5971H17.5722V18.6278H18.4361C18.578 18.6278 18.6951 18.578 18.7922 18.4785C18.8893 18.3789 18.9366 18.2643 18.9366 18.1324C18.9366 18.0004 18.8868 17.8735 18.7872 17.7639C18.6876 17.6519 18.5706 17.5971 18.4361 17.5971ZM21.1275 21.6478V16.2975H25.3749V17.6369H22.5416V18.2942H25.2205V19.6411H22.5416V20.2984H25.3749V21.6453H21.1275V21.6478ZM30.5435 17.6867H29.1642V21.6478H27.638V17.6867H26.2587L26.1293 17.5573V16.3H30.6754V17.5573L30.546 17.6867H30.5435ZM35.7544 19.6685C35.7544 19.9175 35.7146 20.1515 35.6324 20.3706C35.5502 20.5897 35.4382 20.7864 35.2963 20.9632C35.1519 21.1399 34.9826 21.2918 34.7859 21.4213C34.5892 21.5507 34.3751 21.6478 34.1485 21.7126C34.0514 21.7399 33.9494 21.7623 33.8448 21.7823C33.7402 21.8022 33.6332 21.8096 33.5236 21.8096C33.4141 21.8096 33.3095 21.7997 33.2025 21.7823C33.0979 21.7623 32.9958 21.7399 32.8987 21.7126C32.6721 21.6478 32.4605 21.5507 32.2663 21.4213C32.0721 21.2918 31.9004 21.1374 31.7559 20.9632C31.6091 20.7864 31.497 20.5897 31.4149 20.3706C31.3327 20.1515 31.2929 19.9175 31.2929 19.6685V16.3H32.8763V19.5889C32.8763 19.676 32.8937 19.7557 32.9286 19.8279C32.9634 19.9001 33.0107 19.9648 33.0705 20.0196C33.1303 20.0743 33.2 20.1167 33.2771 20.149C33.3568 20.1814 33.439 20.1988 33.5236 20.1988C33.6083 20.1988 33.6929 20.1814 33.7701 20.149C33.8498 20.1167 33.917 20.0743 33.9767 20.0196C34.0365 19.9648 34.0838 19.9026 34.1187 19.8279C34.1535 19.7557 34.1709 19.676 34.1709 19.5889V16.3H35.7544V19.6685ZM39.5586 21.6478L39.2897 20.9258H37.7636L37.4947 21.6478H35.9187L37.8756 16.2975H39.1752L41.1321 21.6478H39.5561H39.5586ZM38.5279 18.5631L38.1868 19.6013H38.869L38.5279 18.5631Z" fill="white"/>
<path d="M22.4246 15.8891H24.3491L24.5981 15.207H22.6736L22.4246 15.8891Z" fill="white"/>
<path fill-rule="evenodd" clip-rule="evenodd" d="M34.2357 11.9555C34.4946 11.5248 34.6689 11.5297 35.1071 11.7663C35.8664 12.1771 36.9469 12.3787 37.8034 12.3787C38.4208 12.3787 39.2449 12.3414 39.2449 11.5447C39.2449 11.0169 38.3038 10.7455 37.8955 10.6733C36.5087 10.4218 34.4473 10.0982 33.6581 8.74627C33.3095 8.15123 33.2473 7.22507 33.3941 6.55036C33.9942 3.7669 37.5992 3.56274 39.825 4.11545C41.03 4.41421 41.8242 4.71298 41.0748 6.01508C40.5097 6.99353 39.9545 6.82921 38.9611 6.50057C38.4806 6.34123 37.9627 6.26156 37.4075 6.26156C35.9311 6.26156 35.5751 7.37694 37.1835 7.79272C38.3362 8.09148 39.5487 8.23837 40.6142 8.81598C42.6682 9.92638 42.5761 12.9439 40.6068 14.0543C38.8739 15.0427 36.3245 14.851 34.3676 14.1788C32.6373 13.5837 33.3742 13.3945 34.2357 11.9605V11.9555Z" fill="white"/>
<path fill-rule="evenodd" clip-rule="evenodd" d="M29.336 14.4128V6.00014C30.2422 5.88562 30.5011 4.81754 32.0995 6.00014V14.4128H29.336Z" fill="white"/>
<path fill-rule="evenodd" clip-rule="evenodd" d="M5.00925 7.89728C4.73538 8.80104 4.464 9.7048 4.19014 10.6061H5.8159C5.54702 9.70231 5.27813 8.79855 5.00925 7.89728ZM7.11054 14.4128C6.93377 13.9422 6.75701 13.4692 6.58273 12.9986H3.42332C3.24655 13.4692 3.06978 13.9422 2.8955 14.4128H0C1.26476 10.9945 2.52952 7.57362 3.79428 4.15529H6.21425C7.47901 7.57362 8.74377 10.9945 10.0085 14.4128H7.11054Z" fill="white"/>
<path fill-rule="evenodd" clip-rule="evenodd" d="M20.4204 11.9555C20.6793 11.5248 20.8536 11.5297 21.2918 11.7663C22.0511 12.1771 23.1317 12.3787 23.9881 12.3787C24.6056 12.3787 25.4296 12.3414 25.4296 11.5447C25.4296 11.0169 24.4885 10.7455 24.0802 10.6733C22.6935 10.4218 20.632 10.0982 19.8428 8.74627C19.4942 8.15123 19.432 7.22507 19.5789 6.55036C20.1789 3.7669 23.784 3.56274 26.0097 4.11545C27.2148 4.41421 28.009 4.71298 27.2596 6.01508C26.6944 6.99353 26.1392 6.82921 25.1458 6.50057C24.6653 6.34123 24.1475 6.26156 23.5923 6.26156C22.1159 6.26156 21.7598 7.37694 23.3682 7.79272C24.5209 8.09148 25.7334 8.23837 26.799 8.81598C28.853 9.92638 28.7608 12.9439 26.7915 14.0543C25.0587 15.0427 22.5092 14.851 20.5524 14.1788C18.822 13.5837 19.559 13.3945 20.4204 11.9605V11.9555Z" fill="white"/>
<path fill-rule="evenodd" clip-rule="evenodd" d="M11.1862 11.9555C11.4451 11.5248 11.6194 11.5297 12.0575 11.7663C12.8169 12.1771 13.8974 12.3787 14.7539 12.3787C15.3713 12.3787 16.1954 12.3414 16.1954 11.5447C16.1954 11.0169 15.2543 10.7455 14.846 10.6733C13.4592 10.4218 11.3978 10.0982 10.6086 8.74627C10.26 8.15123 10.1978 7.22507 10.3446 6.55036C10.9447 3.7669 14.5497 3.56274 16.7755 4.11545C17.9805 4.41421 18.7747 4.71298 18.0253 6.01508C17.4602 6.99353 16.905 6.82921 15.9116 6.50057C15.4311 6.34123 14.9132 6.26156 14.358 6.26156C12.8816 6.26156 12.5256 7.37694 14.1339 7.79272C15.2867 8.09148 16.4991 8.23837 17.5647 8.81598C19.6187 9.92638 19.5266 12.9439 17.5573 14.0543C15.8244 15.0427 13.275 14.851 11.3181 14.1788C9.58778 13.5837 10.3247 13.3945 11.1862 11.9605V11.9555Z" fill="white"/>
<path d="M1.71791 23.8213C1.74281 23.7466 1.76023 23.6943 1.77268 23.662C1.78513 23.6296 1.80754 23.5649 1.84488 23.4653L2.10132 22.7806H2.36772L1.82995 24.1574H1.60338L1.06561 22.7806H1.3345L1.59094 23.4653C1.62828 23.5649 1.65069 23.6296 1.66314 23.662C1.67559 23.6943 1.69301 23.7466 1.71791 23.8213ZM4.73043 24.1574V22.7806H4.98438V24.1574H4.73043ZM8.16371 22.9674C8.09399 22.9674 8.03175 22.9798 7.97449 23.0022C7.91723 23.0246 7.86743 23.057 7.82511 23.1018C7.78278 23.1441 7.75042 23.1989 7.72801 23.2611C7.7056 23.3259 7.69316 23.3981 7.69316 23.4777C7.69316 23.5574 7.70311 23.6296 7.72552 23.6919C7.74544 23.7541 7.7778 23.8039 7.81764 23.8462C7.85747 23.8861 7.90478 23.9184 7.96204 23.9408C8.0193 23.9607 8.08404 23.9732 8.15624 23.9732C8.20852 23.9732 8.2608 23.9682 8.31558 23.9607C8.37035 23.9533 8.42014 23.9408 8.46745 23.9259V24.14C8.42014 24.1525 8.36786 24.1649 8.31309 24.1724C8.25831 24.1798 8.19856 24.1848 8.13881 24.1848C8.02179 24.1848 7.91972 24.1674 7.83009 24.135C7.74295 24.1027 7.66826 24.0554 7.60851 23.9931C7.54875 23.9334 7.50394 23.8587 7.47406 23.774C7.44419 23.6894 7.42925 23.5948 7.42925 23.4927C7.42925 23.3906 7.44419 23.291 7.47655 23.2014C7.50892 23.1118 7.55373 23.0346 7.61597 22.9674C7.67573 22.9001 7.75042 22.8503 7.84254 22.813C7.93217 22.7757 8.03424 22.7557 8.14877 22.7557C8.20603 22.7557 8.26329 22.7607 8.31558 22.7682C8.36786 22.7757 8.41516 22.7881 8.45749 22.8006V23.0122C8.40272 22.9947 8.35043 22.9848 8.30313 22.9773C8.25582 22.9699 8.20852 22.9674 8.16371 22.9674ZM11.1563 23.9458H11.8335V24.1574H10.9049V22.7806H11.7962V22.9923H11.1563V23.3483H11.7065V23.5599H11.1563V23.9483V23.9458ZM14.2385 23.5325H14.6917V23.7541H14.2385V23.5325ZM17.5399 23.6246C17.5175 23.6246 17.495 23.6246 17.4726 23.6246C17.4502 23.6246 17.4303 23.6246 17.4104 23.6197V24.1574H17.1565V22.7806H17.5548C17.622 22.7806 17.6793 22.7831 17.7291 22.7906C17.7789 22.7956 17.8237 22.8055 17.861 22.8155C17.9556 22.8454 18.0278 22.8902 18.0776 22.9524C18.1274 23.0147 18.1548 23.0943 18.1548 23.1939C18.1548 23.2611 18.1424 23.3209 18.115 23.3732C18.0876 23.4255 18.0478 23.4703 17.9955 23.5076C17.9432 23.545 17.8785 23.5724 17.8013 23.5923C17.7241 23.6122 17.637 23.6221 17.5399 23.6221V23.6246ZM17.4129 23.408C17.4278 23.408 17.4453 23.413 17.4677 23.413C17.4901 23.413 17.5125 23.413 17.5374 23.413C17.6046 23.413 17.6619 23.408 17.7067 23.3956C17.7515 23.3856 17.7888 23.3707 17.8187 23.3508C17.8461 23.3309 17.866 23.3084 17.8785 23.2811C17.8909 23.2537 17.8984 23.2238 17.8984 23.1889C17.8984 23.1491 17.8884 23.1143 17.871 23.0844C17.8536 23.0545 17.8212 23.0321 17.7739 23.0147C17.749 23.0072 17.7216 22.9997 17.6843 22.9972C17.6494 22.9923 17.6071 22.9923 17.5548 22.9923H17.4129V23.408ZM21.6229 23.1939C21.6229 23.291 21.5956 23.3707 21.5433 23.4379C21.491 23.5051 21.4088 23.5549 21.2968 23.5873V23.5923L21.7101 24.1574H21.4063L21.0329 23.6246H20.8586V24.1574H20.6047V22.7806H21.0229C21.0926 22.7806 21.1574 22.7856 21.2171 22.7931C21.2769 22.8006 21.3267 22.813 21.369 22.8279C21.4487 22.8578 21.5134 22.9051 21.5557 22.9649C21.6005 23.0246 21.6205 23.1018 21.6205 23.1939H21.6229ZM20.9831 23.413C21.0404 23.413 21.0902 23.413 21.13 23.4055C21.1698 23.4006 21.2022 23.3931 21.2296 23.3831C21.2794 23.3632 21.3142 23.3383 21.3341 23.3035C21.3541 23.2711 21.364 23.2313 21.364 23.1889C21.364 23.1516 21.3566 23.1192 21.3416 23.0894C21.3267 23.062 21.2993 23.0396 21.2644 23.0221C21.2395 23.0097 21.2097 23.0022 21.1748 22.9972C21.1375 22.9923 21.0926 22.9898 21.0404 22.9898H20.8611V23.4105H20.9856L20.9831 23.413ZM24.3616 23.9458H25.0388V24.1574H24.1101V22.7806H25.0039V22.9923H24.3641V23.3483H24.9143V23.5599H24.3641V23.9483L24.3616 23.9458ZM27.7376 24.1574H27.4837V22.7806H28.36V22.9923H27.7351V23.3483H28.2679V23.5599H27.7351V24.1574H27.7376ZM31.0165 23.9458H31.6937V24.1574H30.7651V22.7806H31.6564V22.9923H31.0165V23.3483H31.5667V23.5599H31.0165V23.9483V23.9458ZM34.1386 24.1574V22.7806H34.3925V24.1574H34.1386ZM37.4648 24.1574H37.2109V22.9923H36.7652V22.7806H37.9055V22.9923H37.4623V24.1574H37.4648ZM40.9578 23.8064H40.4375L40.3031 24.1549H40.0342L40.5794 22.7781H40.811L41.3562 24.1549H41.0898L40.9554 23.8064H40.9578ZM40.6964 23.1118C40.6466 23.2562 40.6043 23.3757 40.567 23.4728L40.5197 23.5973H40.8782L40.8309 23.4728C40.7935 23.3757 40.7487 23.2562 40.7014 23.1118H40.6964Z" fill="white"/>
</g>
<defs>
<clipPath id="clip0_36_2">
<rect width="70" height="24.6603" fill="white"/>
</clipPath>
</defs>
</svg>
