<svg width="360" height="8" viewBox="0 0 360 8" fill="none" xmlns="http://www.w3.org/2000/svg">
<rect width="360" height="8" fill="#FDD506"/>
<path d="M0 0H243C245.209 0 247 1.79086 247 4C247 6.20914 245.209 8 243 8H0V0Z" fill="#4373B7"/>
<path d="M0 0H129C131.209 0 133 1.79086 133 4C133 6.20914 131.209 8 129 8H0V0Z" fill="#3CB670"/>
<path d="M0 0H76C78.2091 0 80 1.79086 80 4C80 6.20914 78.2091 8 76 8H0V0Z" fill="#ED2B79"/>
<path d="M0 0H53C55.2091 0 57 1.79086 57 4C57 6.20914 55.2091 8 53 8H0V0Z" fill="#F89D1C"/>
</svg>
