<svg width="130" height="46" viewBox="0 0 130 46" fill="none" xmlns="http://www.w3.org/2000/svg">
<g clip-path="url(#clip0_22_3)">
<circle cx="107" cy="23" r="23" fill="url(#paint0_linear_22_3)"/>
<path fill-rule="evenodd" clip-rule="evenodd" d="M94.9801 36.0325H100.912V11.439C100.912 10.4172 101.079 9.70977 99.6501 9.87622C98.1844 10.0519 96.7187 10.2276 95.2529 10.3987C93.9074 10.5605 92.4695 10.8426 92.4695 12.41V15.1149C92.4695 16.4465 93.1214 16.8395 94.9755 16.0951V36.0325H94.9801ZM111.496 36.2822C117.109 36.2822 121.002 33.0317 121.002 28.2416C121.002 25.2731 119.5 23.0954 116.961 22.129C118.82 21.0193 119.962 19.0173 119.962 16.5528C119.962 12.299 116.568 9.4046 111.242 9.4046C107.103 9.4046 104.001 11.5824 102.642 15.4617C102.475 15.9425 102.295 17.0799 103.192 17.3204C104.352 17.6302 105.527 17.8706 106.697 18.1434C107.501 18.333 107.566 18.0093 107.792 17.3851C108.412 15.6558 109.591 14.6895 111.242 14.6895C113.063 14.6895 114.242 15.8315 114.242 17.3712C114.242 18.9109 113.026 20.053 111.061 20.053C109.096 20.053 108.588 25.0558 111.491 25.0558C113.637 25.0558 114.996 26.0915 114.996 27.9133C114.996 29.735 113.6 30.9511 111.459 30.9511C109.665 30.9511 108.195 30.1003 107.469 28.2508C107.048 27.1827 106.923 27.118 105.832 27.4509C104.903 27.733 103.973 28.0196 103.044 28.3017C101.814 28.6762 101.574 28.8889 102.031 30.1928C103.529 34.4651 107.265 36.2729 111.496 36.2729V36.2822Z" fill="white"/>
<path fill-rule="evenodd" clip-rule="evenodd" d="M63.5805 22.203C64.0614 21.4031 64.385 21.4124 65.1988 21.8516C66.609 22.6145 68.6157 22.989 70.2063 22.989C71.3529 22.989 72.8834 22.9197 72.8834 21.4401C72.8834 20.4599 71.1356 19.9559 70.3773 19.8218C67.8019 19.3548 63.9735 18.7537 62.5078 16.2431C61.8605 15.138 61.7449 13.418 62.0177 12.165C63.132 6.99565 69.8271 6.61651 73.9607 7.64297C76.1986 8.19782 77.6735 8.75266 76.2818 11.1709C75.2322 12.988 74.2012 12.6828 72.3563 12.0725C71.4639 11.7766 70.5022 11.6286 69.4711 11.6286C66.7292 11.6286 66.0681 13.7 69.055 14.4722C71.1957 15.027 73.4475 15.2998 75.4264 16.3725C79.241 18.4347 79.0699 24.0386 75.4126 26.1008C72.1945 27.9364 67.4598 27.5804 63.8256 26.332C60.6121 25.2269 61.9807 24.8755 63.5805 22.2123V22.203Z" fill="#4374B7"/>
<path fill-rule="evenodd" clip-rule="evenodd" d="M54.4811 26.7666V11.1431C56.1641 10.9304 56.645 8.94687 59.6134 11.1431V26.7666H54.4811Z" fill="#4374B7"/>
<path fill-rule="evenodd" clip-rule="evenodd" d="M9.30289 14.6664C8.79428 16.3448 8.2903 18.0232 7.78169 19.697H10.801C10.3016 18.0186 9.80225 16.3402 9.30289 14.6664ZM13.2053 26.7666C12.877 25.8927 12.5487 25.0142 12.2251 24.1403H6.35759C6.02931 25.0142 5.70102 25.8927 5.37736 26.7666H0C2.34884 20.4183 4.69768 14.0653 7.04652 7.71695H11.5408C13.8896 14.0653 16.2384 20.4183 18.5873 26.7666H13.2099H13.2053Z" fill="#4374B7"/>
<path d="M8.46136 4.29079C8.4105 4.29079 8.35501 4.29079 8.30415 4.29079C8.25329 4.29079 8.20706 4.28617 8.16082 4.28154V5.53457H7.57361V2.32572H8.49835C8.65093 2.32572 8.78964 2.33034 8.90524 2.34421C9.02083 2.35808 9.12255 2.37658 9.21502 2.40432C9.43234 2.47368 9.60341 2.58002 9.72363 2.72798C9.84385 2.87594 9.89933 3.06089 9.89933 3.28745C9.89933 3.44003 9.86697 3.58337 9.80223 3.70358C9.7375 3.82842 9.64503 3.93477 9.52019 4.01799C9.39535 4.10584 9.24739 4.17058 9.06707 4.21681C8.89136 4.26305 8.68792 4.28617 8.45674 4.28617L8.46136 4.29079ZM8.16082 3.78681C8.19318 3.79143 8.2348 3.79606 8.29028 3.79606C8.34114 3.79606 8.39663 3.79606 8.45211 3.79606C8.60932 3.79606 8.74341 3.78218 8.84975 3.75907C8.9561 3.73132 9.04395 3.69896 9.10868 3.65272C9.17341 3.60648 9.21965 3.551 9.24739 3.48627C9.27513 3.42154 9.289 3.35218 9.289 3.27358C9.289 3.1811 9.26588 3.09788 9.22427 3.02852C9.18266 2.95917 9.10868 2.9083 8.99771 2.86669C8.94222 2.8482 8.87287 2.83433 8.78964 2.82508C8.70642 2.81583 8.60932 2.81121 8.4891 2.81121H8.1562V3.77756L8.16082 3.78681ZM15.8685 3.29207C15.8685 3.51401 15.8084 3.70358 15.6836 3.86079C15.5587 4.01799 15.3692 4.13359 15.1102 4.20757V4.21681L16.072 5.53457H15.3645L14.4907 4.29079H14.0884V5.53457H13.5012V2.32572H14.4768C14.6386 2.32572 14.7866 2.33497 14.9299 2.35346C15.0686 2.37196 15.1888 2.3997 15.2859 2.43669C15.4755 2.50604 15.6189 2.61701 15.7206 2.75572C15.8223 2.89906 15.8732 3.07476 15.8732 3.28745L15.8685 3.29207ZM14.3751 3.80068C14.5092 3.80068 14.6248 3.79606 14.7172 3.78218C14.8097 3.76831 14.8883 3.74982 14.953 3.7267C15.0686 3.68046 15.1519 3.62035 15.1981 3.54175C15.2443 3.46315 15.2674 3.3753 15.2674 3.27358C15.2674 3.18573 15.249 3.11175 15.212 3.04239C15.175 2.97766 15.1149 2.9268 15.0316 2.88519C14.9762 2.85744 14.9068 2.83895 14.8236 2.8297C14.7403 2.81583 14.634 2.81121 14.5092 2.81121H14.093V3.79143H14.3843L14.3751 3.80068ZM20.1408 5.04446H21.7175V5.53457H19.549V2.32572H21.6297V2.81583H20.1362V3.6481H21.417V4.13821H20.1362V5.03983L20.1408 5.04446ZM25.9066 5.53457H25.3194V2.32572H27.3631V2.81583H25.9066V3.6481H27.1504V4.13821H25.9066V5.53457ZM31.4365 5.04446H33.0132V5.53457H30.8447V2.32572H32.9254V2.81583H31.4319V3.6481H32.7127V4.13821H31.4319V5.03983L31.4365 5.04446ZM36.6105 5.53457V2.32572H37.1977V5.53457H36.6105ZM42.256 5.53457H41.6688V2.82045H40.6331V2.33034H43.2917V2.82045H42.256V5.53457ZM48.9742 3.92552C48.9742 3.73132 48.9511 3.56025 48.9003 3.41229C48.854 3.26433 48.7847 3.14411 48.7014 3.04702C48.6182 2.94992 48.5165 2.87594 48.4009 2.8297C48.2853 2.78346 48.1558 2.75572 48.0171 2.75572C47.8784 2.75572 47.749 2.77884 47.6334 2.8297C47.5178 2.87594 47.4161 2.94992 47.3328 3.04702C47.2496 3.14411 47.1802 3.26433 47.134 3.41229C47.0878 3.56025 47.06 3.7267 47.06 3.92552C47.06 4.12434 47.0831 4.29079 47.134 4.43875C47.1802 4.58671 47.2496 4.70693 47.3328 4.80402C47.4161 4.90112 47.5178 4.9751 47.6334 5.02134C47.749 5.06757 47.8784 5.09532 48.0171 5.09532C48.1558 5.09532 48.2853 5.0722 48.4009 5.02134C48.5165 4.97048 48.6182 4.90112 48.7014 4.80402C48.7847 4.70693 48.854 4.58671 48.9003 4.43875C48.9465 4.29079 48.9742 4.11971 48.9742 3.92552ZM49.5799 3.92552C49.5799 4.17058 49.5476 4.39251 49.4782 4.60058C49.4089 4.80402 49.3071 4.97972 49.1731 5.12768C49.039 5.27564 48.8771 5.39123 48.6829 5.46984C48.4888 5.55306 48.2668 5.59005 48.0218 5.59005C47.7767 5.59005 47.5548 5.54844 47.3606 5.46984C47.1664 5.38661 46.9999 5.27564 46.8705 5.12768C46.7364 4.97972 46.6346 4.80402 46.5653 4.60058C46.4959 4.39714 46.459 4.17058 46.459 3.92552C46.459 3.68046 46.4959 3.45853 46.5653 3.25046C46.6346 3.04702 46.7364 2.87132 46.8705 2.72336C47.0045 2.5754 47.1664 2.45981 47.3606 2.3812C47.5548 2.29798 47.7767 2.26099 48.0218 2.26099C48.2668 2.26099 48.4888 2.3026 48.6829 2.3812C48.8771 2.46443 49.0436 2.5754 49.1731 2.72336C49.3071 2.87132 49.4089 3.04702 49.4782 3.25046C49.5476 3.4539 49.5799 3.68046 49.5799 3.92552Z" fill="#92A3B7"/>
<path fill-rule="evenodd" clip-rule="evenodd" d="M57.6483 1.06345C57.5189 0.702806 56.8207 0.661193 56.6774 1.08657C56.4323 1.73389 56.1872 2.38121 55.9468 3.02391C55.8266 3.36606 55.6185 3.56488 55.2949 3.57875C54.532 3.5695 53.769 3.56025 53.0061 3.55563C52.5484 3.59724 52.3634 4.21682 52.664 4.51736C53.2281 4.93812 53.7875 5.3635 54.3516 5.78426C54.6383 6.02931 54.7631 6.33448 54.5967 6.75986C54.4117 7.30545 54.2314 7.85567 54.0465 8.40127C53.8199 9.04397 54.2592 9.66817 54.962 9.25203C55.5029 8.86364 56.0439 8.47063 56.5803 8.08224C56.8623 7.85567 57.1813 7.87417 57.5327 8.13772C58.0737 8.53998 58.6147 8.93762 59.1557 9.33988C59.6042 9.70053 60.2607 9.2844 60.0203 8.56772C59.8446 8.00826 59.6643 7.44417 59.4886 6.8847C59.3499 6.42233 59.5163 6.12641 59.8168 5.90447C60.3994 5.49296 60.982 5.08608 61.5646 4.67457C61.8929 4.36478 61.634 3.77294 61.1439 3.72671C60.5197 3.70359 59.8954 3.68509 59.2666 3.66198C58.7626 3.68509 58.4297 3.48628 58.2818 3.04702C58.0691 2.38583 57.8564 1.72002 57.6483 1.05883V1.06345Z" fill="#EB1F25"/>
<path d="M5.60393 37.2347H3.86079V40.2031H0.998718V30.2668H5.5993C6.09404 30.2668 6.56566 30.3546 7.0234 30.5303C7.48115 30.706 7.88341 30.9511 8.23481 31.2701C8.58621 31.5845 8.86826 31.959 9.08095 32.3844C9.29364 32.8098 9.39536 33.2722 9.39536 33.7623C9.39536 34.2524 9.28902 34.7286 9.08095 35.1494C8.87288 35.5701 8.59546 35.9354 8.24868 36.2406C7.90653 36.5457 7.49964 36.7862 7.0419 36.9665C6.57953 37.1422 6.10329 37.23 5.61317 37.23L5.60393 37.2347ZM5.51145 32.6803H3.90703V34.5945H5.51145C5.775 34.5945 5.99232 34.5021 6.17264 34.3171C6.35297 34.1322 6.44082 33.9195 6.44082 33.6744C6.44082 33.4294 6.34834 33.1936 6.16339 32.9901C5.97845 32.782 5.76113 32.6803 5.51145 32.6803ZM10.6299 40.2031V30.2668H18.5133V32.7543H13.2515V33.975H18.2266V36.4764H13.2515V37.697H18.5133V40.1985H10.6299V40.2031ZM26.4291 40.2031L24.8616 37.1746H23.0954V40.2031H20.1871V30.2668H25.3749C25.6061 30.2668 25.8465 30.2991 26.0916 30.3639C26.3366 30.4286 26.577 30.5211 26.8082 30.6367C27.0394 30.7522 27.2521 30.891 27.4509 31.0528C27.6451 31.2146 27.8162 31.3949 27.9549 31.5938C28.126 31.8434 28.2554 32.1162 28.3479 32.4075C28.4404 32.6988 28.482 32.9947 28.482 33.2953C28.482 33.7761 28.371 34.2339 28.1491 34.6593C27.9272 35.0847 27.6266 35.4453 27.2429 35.7366L29.5639 40.1985H26.4291V40.2031ZM24.5565 32.5925H23.0954V34.4928H24.5565C24.82 34.4928 25.042 34.4003 25.2362 34.2108C25.4257 34.0258 25.5228 33.7993 25.5228 33.5357C25.5228 33.2722 25.4257 33.0502 25.2362 32.8653C25.0466 32.6803 24.82 32.5925 24.5565 32.5925ZM34.3356 37.2347H32.5925V40.2031H29.7258V30.2668H34.3264C34.8211 30.2668 35.2927 30.3546 35.7505 30.5303C36.2082 30.706 36.6105 30.9511 36.9619 31.2701C37.3133 31.5845 37.5953 31.959 37.808 32.3844C38.0207 32.8098 38.1224 33.2722 38.1224 33.7623C38.1224 34.2524 38.0161 34.7286 37.808 35.1494C37.5999 35.5701 37.3225 35.9354 36.9757 36.2406C36.6336 36.5457 36.2267 36.7862 35.769 36.9665C35.3066 37.1422 34.8303 37.23 34.3402 37.23L34.3356 37.2347ZM34.2385 32.6803H32.6341V34.5945H34.2385C34.5021 34.5945 34.7194 34.5021 34.8997 34.3171C35.08 34.1322 35.1679 33.9195 35.1679 33.6744C35.1679 33.4294 35.0754 33.1936 34.8905 32.9901C34.7055 32.782 34.4882 32.6803 34.2385 32.6803ZM39.2367 40.2031V30.2668H47.1248V32.7543H41.863V33.975H46.8381V36.4764H41.863V37.697H47.1248V40.1985H39.2367V40.2031ZM56.7236 32.8468H54.162V40.2031H51.3277V32.8468H48.7662L48.5257 32.6063V30.2714H56.9686V32.6063L56.7282 32.8468H56.7236ZM66.401 36.5272C66.401 36.9896 66.327 37.4242 66.1744 37.8311C66.0218 38.238 65.8138 38.6033 65.5502 38.9316C65.2821 39.2599 64.9676 39.5419 64.6024 39.7823C64.2371 40.0228 63.8395 40.2031 63.4187 40.3233C63.2384 40.3742 63.0488 40.4158 62.8546 40.4528C62.6604 40.4898 62.4616 40.5036 62.2581 40.5036C62.0547 40.5036 61.8605 40.4851 61.6617 40.4528C61.4675 40.4158 61.2779 40.3742 61.0976 40.3233C60.6768 40.2031 60.2838 40.0228 59.9232 39.7823C59.5625 39.5419 59.2435 39.2552 58.9753 38.9316C58.7025 38.6033 58.4945 38.238 58.3419 37.8311C58.1893 37.4242 58.1153 36.9896 58.1153 36.5272V30.2714H61.056V36.3793C61.056 36.5411 61.0883 36.6891 61.1531 36.8232C61.2178 36.9573 61.3057 37.0775 61.4166 37.1792C61.5276 37.2809 61.6571 37.3595 61.8004 37.4196C61.9484 37.4797 62.1009 37.5121 62.2581 37.5121C62.4153 37.5121 62.5726 37.4797 62.7159 37.4196C62.8638 37.3595 62.9887 37.2809 63.0997 37.1792C63.2106 37.0775 63.2985 36.9619 63.3632 36.8232C63.4279 36.6891 63.4603 36.5411 63.4603 36.3793V30.2714H66.401V36.5272ZM73.466 40.2031L72.9666 38.8622H70.1323L69.633 40.2031H66.7062L70.3404 30.2668H72.754L76.3882 40.2031H73.4614H73.466ZM71.5518 34.4743L70.9183 36.4024H72.1852L71.5518 34.4743Z" fill="#EB2979"/>
<path d="M41.6457 29.5085H45.2198L45.6822 28.2416H42.1081L41.6457 29.5085Z" fill="#EB2979"/>
<path fill-rule="evenodd" clip-rule="evenodd" d="M37.9236 22.203C38.4044 21.4031 38.7281 21.4124 39.5419 21.8516C40.9521 22.6145 42.9588 22.989 44.5493 22.989C45.696 22.989 47.2265 22.9197 47.2265 21.4401C47.2265 20.4599 45.4787 19.9559 44.7204 19.8218C42.145 19.3548 38.3166 18.7537 36.8509 16.2431C36.2036 15.138 36.088 13.418 36.3608 12.165C37.4751 6.99565 44.1702 6.61651 48.3038 7.64297C50.5417 8.19782 52.0166 8.75266 50.6249 11.1709C49.5753 12.988 48.5442 12.6828 46.6994 12.0725C45.807 11.7766 44.8453 11.6286 43.8142 11.6286C41.0723 11.6286 40.4111 13.7 43.398 14.4722C45.5388 15.027 47.7906 15.2998 49.7695 16.3725C53.5841 18.4347 53.413 24.0386 49.7556 26.1008C46.5375 27.9364 41.8029 27.5804 38.1686 26.332C34.9552 25.2269 36.3238 24.8755 37.9236 22.2123V22.203Z" fill="#4374B7"/>
<path fill-rule="evenodd" clip-rule="evenodd" d="M20.7743 22.203C21.2552 21.4031 21.5788 21.4124 22.3926 21.8516C23.8028 22.6145 25.8095 22.989 27.4001 22.989C28.5467 22.989 30.0772 22.9197 30.0772 21.4401C30.0772 20.4599 28.3294 19.9559 27.5711 19.8218C24.9957 19.3548 21.1673 18.7537 19.7016 16.2431C19.0543 15.138 18.9387 13.418 19.2115 12.165C20.3258 6.99565 27.0209 6.61651 31.1545 7.64297C33.3924 8.19782 34.8673 8.75266 33.4756 11.1709C32.426 12.988 31.3949 12.6828 29.5501 12.0725C28.6577 11.7766 27.696 11.6286 26.6649 11.6286C23.923 11.6286 23.2618 13.7 26.2488 14.4722C28.3895 15.027 30.6413 15.2998 32.6202 16.3725C36.4348 18.4347 36.2637 24.0386 32.6063 26.1008C29.3882 27.9364 24.6536 27.5804 21.0193 26.332C17.8059 25.2269 19.1745 24.8755 20.7743 22.2123V22.203Z" fill="#4374B7"/>
<path d="M3.19035 44.2396C3.23659 44.1009 3.26896 44.0038 3.29207 43.9437C3.31519 43.8836 3.35681 43.7634 3.42616 43.5784L3.9024 42.3069H4.39714L3.39842 44.8638H2.97766L1.97894 42.3069H2.4783L2.95454 43.5784C3.0239 43.7634 3.06551 43.8836 3.08863 43.9437C3.11175 44.0038 3.14412 44.1009 3.19035 44.2396ZM8.78503 44.8638V42.3069H9.25665V44.8638H8.78503ZM15.1611 42.6537C15.0317 42.6537 14.9161 42.6768 14.8097 42.7184C14.7034 42.76 14.6109 42.8201 14.5323 42.9033C14.4537 42.9819 14.3936 43.0837 14.352 43.1993C14.3104 43.3195 14.2872 43.4536 14.2872 43.6015C14.2872 43.7495 14.3057 43.8836 14.3473 43.9992C14.3843 44.1148 14.4444 44.2072 14.5184 44.2858C14.5924 44.3598 14.6803 44.4199 14.7866 44.4615C14.8929 44.4985 15.0132 44.5216 15.1472 44.5216C15.2443 44.5216 15.3414 44.5124 15.4432 44.4985C15.5449 44.4846 15.6374 44.4615 15.7252 44.4338V44.8314C15.6374 44.8545 15.5403 44.8777 15.4385 44.8915C15.3368 44.9054 15.2258 44.9147 15.1149 44.9147C14.8976 44.9147 14.708 44.8823 14.5415 44.8222C14.3797 44.7621 14.241 44.6742 14.13 44.5586C14.0191 44.4477 13.9358 44.3089 13.8804 44.1517C13.8249 43.9945 13.7971 43.8188 13.7971 43.6293C13.7971 43.4397 13.8249 43.2547 13.885 43.0883C13.9451 42.9218 14.0283 42.7785 14.1439 42.6537C14.2549 42.5288 14.3936 42.4363 14.5647 42.367C14.7311 42.2976 14.9207 42.2607 15.1334 42.2607C15.2397 42.2607 15.3461 42.2699 15.4432 42.2838C15.5403 42.2976 15.6281 42.3208 15.7067 42.3439V42.7369C15.605 42.7045 15.5079 42.686 15.42 42.6722C15.3322 42.6583 15.2443 42.6537 15.1611 42.6537ZM20.7188 44.4708H21.9765V44.8638H20.2518V42.3069H21.9071V42.6999H20.7188V43.3611H21.7406V43.7541H20.7188V44.4754V44.4708ZM26.443 43.7032H27.2845V44.1148H26.443V43.7032ZM32.574 43.8743C32.5324 43.8743 32.4908 43.8743 32.4491 43.8743C32.4075 43.8743 32.3705 43.8743 32.3335 43.8651V44.8638H31.8619V42.3069H32.6017C32.7266 42.3069 32.8329 42.3115 32.9254 42.3254C33.0179 42.3346 33.1011 42.3531 33.1704 42.3716C33.3461 42.4271 33.4802 42.5103 33.5727 42.6259C33.6652 42.7415 33.716 42.8895 33.716 43.0744C33.716 43.1993 33.6929 43.3102 33.6421 43.4073C33.5912 43.5044 33.5172 43.5877 33.4201 43.657C33.323 43.7264 33.2028 43.7772 33.0595 43.8142C32.9161 43.8512 32.7543 43.8697 32.574 43.8697V43.8743ZM32.3382 43.4721C32.3659 43.4721 32.3983 43.4813 32.4399 43.4813C32.4815 43.4813 32.5231 43.4813 32.5694 43.4813C32.6942 43.4813 32.8005 43.4721 32.8838 43.4489C32.967 43.4304 33.0364 43.4027 33.0918 43.3657C33.1427 43.3287 33.1797 43.2871 33.2028 43.2363C33.2259 43.1854 33.2398 43.1299 33.2398 43.0652C33.2398 42.9912 33.2213 42.9265 33.1889 42.871C33.1566 42.8155 33.0965 42.7739 33.0086 42.7415C32.9624 42.7276 32.9115 42.7138 32.8422 42.7092C32.7774 42.6999 32.6988 42.6999 32.6017 42.6999H32.3382V43.4721ZM40.1569 43.0744C40.1569 43.2547 40.106 43.4027 40.0089 43.5275C39.9118 43.6524 39.7592 43.7449 39.5511 43.805V43.8142L40.3187 44.8638H39.7546L39.061 43.8743H38.7374V44.8638H38.2658V42.3069H39.0425C39.172 42.3069 39.2922 42.3161 39.4032 42.33C39.5142 42.3439 39.6066 42.367 39.6852 42.3947C39.8332 42.4502 39.9534 42.5381 40.032 42.649C40.1152 42.76 40.1522 42.9033 40.1522 43.0744H40.1569ZM38.9686 43.4813C39.0749 43.4813 39.1674 43.4813 39.2414 43.4674C39.3153 43.4582 39.3754 43.4443 39.4263 43.4258C39.5188 43.3888 39.5835 43.3426 39.6205 43.2779C39.6575 43.2178 39.676 43.1438 39.676 43.0652C39.676 42.9958 39.6621 42.9357 39.6344 42.8802C39.6066 42.8294 39.5558 42.7878 39.491 42.7554C39.4448 42.7323 39.3893 42.7184 39.3246 42.7092C39.2552 42.6999 39.172 42.6953 39.0749 42.6953H38.742V43.4767H38.9732L38.9686 43.4813ZM45.2429 44.4708H46.5006V44.8638H44.7759V42.3069H46.4358V42.6999H45.2475V43.3611H46.2694V43.7541H45.2475V44.4754L45.2429 44.4708ZM51.5127 44.8638H51.041V42.3069H52.6686V42.6999H51.508V43.3611H52.4975V43.7541H51.508V44.8638H51.5127ZM57.6021 44.4708H58.8597V44.8638H57.1351V42.3069H58.7904V42.6999H57.6021V43.3611H58.6239V43.7541H57.6021V44.4754V44.4708ZM63.4002 44.8638V42.3069H63.8718V44.8638H63.4002ZM69.5775 44.8638H69.1059V42.6999H68.2782V42.3069H70.3959V42.6999H69.5728V44.8638H69.5775ZM76.0645 44.2119H75.0982L74.8485 44.8592H74.3491L75.3617 42.3023H75.7917L76.8043 44.8592H76.3096L76.0599 44.2119H76.0645ZM75.579 42.9218C75.4866 43.19 75.408 43.412 75.3386 43.5923L75.2508 43.8235H75.9166L75.8287 43.5923C75.7594 43.412 75.6761 43.19 75.5883 42.9218H75.579Z" fill="#232020"/>
</g>
<defs>
<linearGradient id="paint0_linear_22_3" x1="107" y1="0" x2="107" y2="46" gradientUnits="userSpaceOnUse">
<stop stop-color="#EF3F24"/>
<stop offset="1" stop-color="#F68420"/>
</linearGradient>
<clipPath id="clip0_22_3">
<rect width="130" height="45.7978" fill="white"/>
</clipPath>
</defs>
</svg>
