<svg width="30" height="31" viewBox="0 0 30 31" fill="none" xmlns="http://www.w3.org/2000/svg">
<path d="M26.5909 23C26.5909 23.5425 26.3754 24.0627 25.9918 24.4463C25.6082 24.8299 25.0879 25.0454 24.5454 25.0454H6.13634C5.59385 25.0454 5.07358 24.8299 4.68998 24.4463C4.30638 24.0627 4.09088 23.5425 4.09088 23V11.75C4.09088 11.2075 4.30638 10.6872 4.68998 10.3036C5.07358 9.92004 5.59385 9.70453 6.13634 9.70453H10.2272L12.2727 6.63635H18.4091L20.4545 9.70453H24.5454C25.0879 9.70453 25.6082 9.92004 25.9918 10.3036C26.3754 10.6872 26.5909 11.2075 26.5909 11.75V23Z" stroke="#65D093" stroke-width="2" stroke-linecap="round" stroke-linejoin="round"/>
<path d="M15.341 20.9545C17.6003 20.9545 19.4319 19.123 19.4319 16.8636C19.4319 14.6043 17.6003 12.7727 15.341 12.7727C13.0816 12.7727 11.2501 14.6043 11.2501 16.8636C11.2501 19.123 13.0816 20.9545 15.341 20.9545Z" stroke="#65D093" stroke-width="2" stroke-linecap="round" stroke-linejoin="round"/>
</svg>
